<mxfile host="app.diagrams.net" modified="2022-11-12T04:35:29.327Z" agent="5.0 (Macintosh; Intel Mac OS X 10_15_7) AppleWebKit/537.36 (KHTML, like Gecko) Chrome/107.0.0.0 Safari/537.36" etag="VA44tCwgXLF0LMuugSoX" version="20.5.3" type="github">
  <diagram id="758a90GONlvFM3xaX40C" name="第 1 页">
    <mxGraphModel dx="1426" dy="793" grid="1" gridSize="10" guides="1" tooltips="1" connect="1" arrows="1" fold="1" page="1" pageScale="1" pageWidth="827" pageHeight="1169" math="0" shadow="0">
      <root>
        <mxCell id="0" />
        <mxCell id="1" parent="0" />
        <mxCell id="yGmj1XY1PoQc9o83S2n0-1" value="&lt;font style=&quot;font-size: 30px;&quot;&gt;Role&lt;/font&gt;" style="rounded=0;whiteSpace=wrap;html=1;" vertex="1" parent="1">
          <mxGeometry x="109" y="660" width="120" height="60" as="geometry" />
        </mxCell>
        <mxCell id="yGmj1XY1PoQc9o83S2n0-30" value="&lt;font style=&quot;font-size: 30px;&quot;&gt;RoleMgr&lt;br&gt;&lt;/font&gt;" style="rounded=0;whiteSpace=wrap;html=1;" vertex="1" parent="1">
          <mxGeometry x="109" y="560" width="120" height="60" as="geometry" />
        </mxCell>
        <mxCell id="yGmj1XY1PoQc9o83S2n0-37" style="edgeStyle=orthogonalEdgeStyle;rounded=0;orthogonalLoop=1;jettySize=auto;html=1;entryX=0.25;entryY=1;entryDx=0;entryDy=0;fontSize=20;" edge="1" parent="1" source="yGmj1XY1PoQc9o83S2n0-32" target="yGmj1XY1PoQc9o83S2n0-1">
          <mxGeometry relative="1" as="geometry" />
        </mxCell>
        <mxCell id="yGmj1XY1PoQc9o83S2n0-32" value="&lt;span style=&quot;font-size: 30px;&quot;&gt;Player&lt;/span&gt;" style="rounded=0;whiteSpace=wrap;html=1;" vertex="1" parent="1">
          <mxGeometry x="49" y="770" width="120" height="60" as="geometry" />
        </mxCell>
        <mxCell id="yGmj1XY1PoQc9o83S2n0-38" style="edgeStyle=orthogonalEdgeStyle;rounded=0;orthogonalLoop=1;jettySize=auto;html=1;entryX=0.75;entryY=1;entryDx=0;entryDy=0;fontSize=20;" edge="1" parent="1" source="yGmj1XY1PoQc9o83S2n0-33" target="yGmj1XY1PoQc9o83S2n0-1">
          <mxGeometry relative="1" as="geometry" />
        </mxCell>
        <mxCell id="yGmj1XY1PoQc9o83S2n0-33" value="&lt;span style=&quot;font-size: 30px;&quot;&gt;Robot&lt;br&gt;&lt;/span&gt;" style="rounded=0;whiteSpace=wrap;html=1;" vertex="1" parent="1">
          <mxGeometry x="189" y="770" width="120" height="60" as="geometry" />
        </mxCell>
        <mxCell id="yGmj1XY1PoQc9o83S2n0-34" value="&lt;font style=&quot;&quot;&gt;&lt;font style=&quot;font-size: 25px;&quot;&gt;GameMgr&lt;/font&gt;&lt;br&gt;&lt;/font&gt;" style="rounded=0;whiteSpace=wrap;html=1;" vertex="1" parent="1">
          <mxGeometry x="489" y="560" width="120" height="60" as="geometry" />
        </mxCell>
        <mxCell id="yGmj1XY1PoQc9o83S2n0-36" style="edgeStyle=orthogonalEdgeStyle;rounded=0;orthogonalLoop=1;jettySize=auto;html=1;entryX=0.5;entryY=1;entryDx=0;entryDy=0;fontSize=20;" edge="1" parent="1" source="yGmj1XY1PoQc9o83S2n0-35" target="yGmj1XY1PoQc9o83S2n0-32">
          <mxGeometry relative="1" as="geometry" />
        </mxCell>
        <mxCell id="yGmj1XY1PoQc9o83S2n0-35" value="&lt;font style=&quot;font-size: 20px;&quot;&gt;MyPlayer&lt;/font&gt;" style="rounded=0;whiteSpace=wrap;html=1;" vertex="1" parent="1">
          <mxGeometry x="49" y="951" width="120" height="60" as="geometry" />
        </mxCell>
        <mxCell id="yGmj1XY1PoQc9o83S2n0-40" style="edgeStyle=orthogonalEdgeStyle;rounded=0;orthogonalLoop=1;jettySize=auto;html=1;fontSize=20;" edge="1" parent="1" source="yGmj1XY1PoQc9o83S2n0-39" target="yGmj1XY1PoQc9o83S2n0-34">
          <mxGeometry relative="1" as="geometry" />
        </mxCell>
        <mxCell id="yGmj1XY1PoQc9o83S2n0-39" value="&lt;span style=&quot;font-size: 20px;&quot;&gt;MyGameMgr&lt;/span&gt;" style="rounded=0;whiteSpace=wrap;html=1;" vertex="1" parent="1">
          <mxGeometry x="489" y="951" width="120" height="60" as="geometry" />
        </mxCell>
        <mxCell id="yGmj1XY1PoQc9o83S2n0-41" value="&lt;font style=&quot;&quot;&gt;&lt;font style=&quot;font-size: 25px;&quot;&gt;Table&lt;/font&gt;&lt;br&gt;&lt;/font&gt;" style="rounded=0;whiteSpace=wrap;html=1;" vertex="1" parent="1">
          <mxGeometry x="309" y="560" width="120" height="60" as="geometry" />
        </mxCell>
        <mxCell id="yGmj1XY1PoQc9o83S2n0-43" style="edgeStyle=orthogonalEdgeStyle;rounded=0;orthogonalLoop=1;jettySize=auto;html=1;entryX=0.5;entryY=1;entryDx=0;entryDy=0;fontSize=20;" edge="1" parent="1" source="yGmj1XY1PoQc9o83S2n0-42" target="yGmj1XY1PoQc9o83S2n0-41">
          <mxGeometry relative="1" as="geometry" />
        </mxCell>
        <mxCell id="yGmj1XY1PoQc9o83S2n0-42" value="&lt;font style=&quot;&quot;&gt;&lt;font style=&quot;font-size: 25px;&quot;&gt;MyTable&lt;/font&gt;&lt;br&gt;&lt;/font&gt;" style="rounded=0;whiteSpace=wrap;html=1;" vertex="1" parent="1">
          <mxGeometry x="309" y="951" width="120" height="60" as="geometry" />
        </mxCell>
        <mxCell id="yGmj1XY1PoQc9o83S2n0-44" value="Main" style="rounded=0;whiteSpace=wrap;html=1;fontSize=20;" vertex="1" parent="1">
          <mxGeometry x="659" y="560" width="120" height="60" as="geometry" />
        </mxCell>
        <mxCell id="yGmj1XY1PoQc9o83S2n0-46" style="edgeStyle=orthogonalEdgeStyle;rounded=0;orthogonalLoop=1;jettySize=auto;html=1;fontSize=20;" edge="1" parent="1" source="yGmj1XY1PoQc9o83S2n0-45" target="yGmj1XY1PoQc9o83S2n0-44">
          <mxGeometry relative="1" as="geometry" />
        </mxCell>
        <mxCell id="yGmj1XY1PoQc9o83S2n0-45" value="&lt;span style=&quot;font-size: 20px;&quot;&gt;MyMain&lt;/span&gt;" style="rounded=0;whiteSpace=wrap;html=1;" vertex="1" parent="1">
          <mxGeometry x="659" y="951" width="120" height="60" as="geometry" />
        </mxCell>
        <mxCell id="yGmj1XY1PoQc9o83S2n0-51" value="frame" style="swimlane;whiteSpace=wrap;html=1;rounded=0;shadow=0;glass=0;sketch=1;fontSize=20;swimlaneLine=1;fillColor=#e1d5e7;strokeColor=#9673a6;" vertex="1" parent="1">
          <mxGeometry x="29" y="30" width="781" height="840" as="geometry" />
        </mxCell>
        <mxCell id="yGmj1XY1PoQc9o83S2n0-53" value="game" style="swimlane;whiteSpace=wrap;html=1;rounded=0;shadow=0;glass=0;sketch=0;fontSize=20;fillColor=#f5f5f5;strokeColor=#666666;fontColor=#333333;" vertex="1" parent="yGmj1XY1PoQc9o83S2n0-51">
          <mxGeometry x="11" y="490" width="749" height="320" as="geometry" />
        </mxCell>
        <mxCell id="yGmj1XY1PoQc9o83S2n0-54" value="task" style="swimlane;whiteSpace=wrap;html=1;rounded=0;shadow=0;glass=0;sketch=0;fontSize=20;fillColor=#f5f5f5;fontColor=#333333;strokeColor=#666666;" vertex="1" parent="yGmj1XY1PoQc9o83S2n0-51">
          <mxGeometry x="11" y="40" width="319" height="360" as="geometry" />
        </mxCell>
        <mxCell id="yGmj1XY1PoQc9o83S2n0-55" value="TaskMgr" style="rounded=0;whiteSpace=wrap;html=1;shadow=0;glass=0;sketch=0;fontSize=20;" vertex="1" parent="yGmj1XY1PoQc9o83S2n0-54">
          <mxGeometry x="99.25" y="50" width="120" height="60" as="geometry" />
        </mxCell>
        <mxCell id="yGmj1XY1PoQc9o83S2n0-56" value="Task" style="rounded=0;whiteSpace=wrap;html=1;shadow=0;glass=0;sketch=0;fontSize=20;" vertex="1" parent="yGmj1XY1PoQc9o83S2n0-54">
          <mxGeometry x="99.25" y="130" width="120" height="60" as="geometry" />
        </mxCell>
        <mxCell id="yGmj1XY1PoQc9o83S2n0-60" style="edgeStyle=orthogonalEdgeStyle;rounded=0;orthogonalLoop=1;jettySize=auto;html=1;entryX=0.25;entryY=1;entryDx=0;entryDy=0;fontSize=15;" edge="1" parent="yGmj1XY1PoQc9o83S2n0-54" source="yGmj1XY1PoQc9o83S2n0-57" target="yGmj1XY1PoQc9o83S2n0-56">
          <mxGeometry relative="1" as="geometry" />
        </mxCell>
        <mxCell id="yGmj1XY1PoQc9o83S2n0-57" value="&lt;font style=&quot;font-size: 15px;&quot;&gt;Scheduler&lt;/font&gt;" style="rounded=0;whiteSpace=wrap;html=1;shadow=0;glass=0;sketch=0;fontSize=20;" vertex="1" parent="yGmj1XY1PoQc9o83S2n0-54">
          <mxGeometry x="19.75" y="260" width="80" height="50" as="geometry" />
        </mxCell>
        <mxCell id="yGmj1XY1PoQc9o83S2n0-61" style="edgeStyle=orthogonalEdgeStyle;rounded=0;orthogonalLoop=1;jettySize=auto;html=1;fontSize=15;" edge="1" parent="yGmj1XY1PoQc9o83S2n0-54" source="yGmj1XY1PoQc9o83S2n0-58">
          <mxGeometry relative="1" as="geometry">
            <mxPoint x="159.75" y="190" as="targetPoint" />
          </mxGeometry>
        </mxCell>
        <mxCell id="yGmj1XY1PoQc9o83S2n0-58" value="&lt;font style=&quot;font-size: 15px;&quot;&gt;Timer&lt;/font&gt;" style="rounded=0;whiteSpace=wrap;html=1;shadow=0;glass=0;sketch=0;fontSize=20;" vertex="1" parent="yGmj1XY1PoQc9o83S2n0-54">
          <mxGeometry x="119.25" y="260" width="80" height="50" as="geometry" />
        </mxCell>
        <mxCell id="yGmj1XY1PoQc9o83S2n0-62" style="edgeStyle=orthogonalEdgeStyle;rounded=0;orthogonalLoop=1;jettySize=auto;html=1;entryX=0.75;entryY=1;entryDx=0;entryDy=0;fontSize=15;" edge="1" parent="yGmj1XY1PoQc9o83S2n0-54" source="yGmj1XY1PoQc9o83S2n0-59" target="yGmj1XY1PoQc9o83S2n0-56">
          <mxGeometry relative="1" as="geometry">
            <Array as="points">
              <mxPoint x="259.75" y="225" />
              <mxPoint x="189.75" y="225" />
            </Array>
          </mxGeometry>
        </mxCell>
        <mxCell id="yGmj1XY1PoQc9o83S2n0-59" value="&lt;font style=&quot;font-size: 15px;&quot;&gt;Trigger&lt;/font&gt;" style="rounded=0;whiteSpace=wrap;html=1;shadow=0;glass=0;sketch=0;fontSize=20;" vertex="1" parent="yGmj1XY1PoQc9o83S2n0-54">
          <mxGeometry x="219.25" y="260" width="80" height="50" as="geometry" />
        </mxCell>
        <mxCell id="yGmj1XY1PoQc9o83S2n0-72" value="net" style="swimlane;whiteSpace=wrap;html=1;rounded=0;shadow=0;glass=0;sketch=0;fontSize=20;fillColor=#f5f5f5;fontColor=#333333;strokeColor=#666666;" vertex="1" parent="yGmj1XY1PoQc9o83S2n0-51">
          <mxGeometry x="401" y="40" width="319" height="190" as="geometry" />
        </mxCell>
        <mxCell id="yGmj1XY1PoQc9o83S2n0-73" value="MsgQueue" style="rounded=0;whiteSpace=wrap;html=1;shadow=0;glass=0;sketch=0;fontSize=20;" vertex="1" parent="yGmj1XY1PoQc9o83S2n0-72">
          <mxGeometry x="99.5" y="30" width="120" height="60" as="geometry" />
        </mxCell>
        <mxCell id="yGmj1XY1PoQc9o83S2n0-74" value="Request" style="rounded=0;whiteSpace=wrap;html=1;shadow=0;glass=0;sketch=0;fontSize=20;" vertex="1" parent="yGmj1XY1PoQc9o83S2n0-72">
          <mxGeometry x="20" y="110" width="120" height="60" as="geometry" />
        </mxCell>
        <mxCell id="yGmj1XY1PoQc9o83S2n0-81" value="Response" style="rounded=0;whiteSpace=wrap;html=1;shadow=0;glass=0;sketch=0;fontSize=20;" vertex="1" parent="yGmj1XY1PoQc9o83S2n0-72">
          <mxGeometry x="160" y="110" width="120" height="60" as="geometry" />
        </mxCell>
        <mxCell id="yGmj1XY1PoQc9o83S2n0-82" value="call" style="swimlane;whiteSpace=wrap;html=1;rounded=0;shadow=0;glass=0;sketch=0;fontSize=20;fillColor=#f5f5f5;fontColor=#333333;strokeColor=#666666;" vertex="1" parent="yGmj1XY1PoQc9o83S2n0-51">
          <mxGeometry x="401" y="270" width="319" height="190" as="geometry" />
        </mxCell>
        <mxCell id="yGmj1XY1PoQc9o83S2n0-83" value="CallMgr" style="rounded=0;whiteSpace=wrap;html=1;shadow=0;glass=0;sketch=0;fontSize=20;" vertex="1" parent="yGmj1XY1PoQc9o83S2n0-82">
          <mxGeometry x="99.5" y="30" width="120" height="60" as="geometry" />
        </mxCell>
        <mxCell id="yGmj1XY1PoQc9o83S2n0-84" value="Call" style="rounded=0;whiteSpace=wrap;html=1;shadow=0;glass=0;sketch=0;fontSize=20;" vertex="1" parent="yGmj1XY1PoQc9o83S2n0-82">
          <mxGeometry x="20" y="110" width="120" height="60" as="geometry" />
        </mxCell>
        <mxCell id="yGmj1XY1PoQc9o83S2n0-85" value="MultiCall" style="rounded=0;whiteSpace=wrap;html=1;shadow=0;glass=0;sketch=0;fontSize=20;" vertex="1" parent="yGmj1XY1PoQc9o83S2n0-82">
          <mxGeometry x="160" y="110" width="120" height="60" as="geometry" />
        </mxCell>
        <mxCell id="yGmj1XY1PoQc9o83S2n0-52" value="mygame" style="swimlane;whiteSpace=wrap;html=1;rounded=0;shadow=0;glass=0;sketch=1;fontSize=20;fillColor=#e1d5e7;strokeColor=#9673a6;" vertex="1" parent="1">
          <mxGeometry x="29" y="910" width="781" height="121" as="geometry" />
        </mxCell>
      </root>
    </mxGraphModel>
  </diagram>
</mxfile>
